<?xml version="1.0" encoding="UTF-8"?>
<svg id="Layer_1" xmlns="http://www.w3.org/2000/svg" version="1.1" viewBox="0 0 30 30">
  <!-- Generator: Adobe Illustrator 29.0.0, SVG Export Plug-In . SVG Version: 2.1.0 Build 186)  -->
  <defs>
    <style>
      .st0 {
        fill: #fff;
      }
    </style>
  </defs>
  <path class="st0" d="M0,13.1C0,5.9,5.9,0,13.2,0h1.4c5.6,0,10.6,4.1,11.6,9.4.1.8.4,1.5.9,2.1l2.5,3.1c.4.5.6,1,.6,1.6,0,1.4-1.1,2.6-2.6,2.6h-1.2v3.8c0,2.1-1.7,3.8-3.8,3.8h-3.8v1.9c0,1-.8,1.9-1.9,1.9H5.7c-1,0-1.9-.8-1.9-1.9v-4.3c0-1-.4-1.9-1-2.7C1,18.9,0,16.1,0,13.1ZM19.8,11.5c.4-.2.6-.7.4-1.1-.1-.3-.3-.6-.4-.9v-.2c-.3-.3-.5-.6-.7-.8-.3-.3-.7-.4-1.1-.2h-.2c-.5.4-1.2.3-1.7,0s-.9-.8-.9-1.5v-.2c0-.4-.3-.8-.7-.9-.4,0-.8,0-1.2,0s-.8,0-1.2,0c-.4,0-.7.4-.7.9v.2c0,.6-.4,1.2-.9,1.5s-1.2.4-1.7,0h-.2c-.4-.3-.8-.3-1.1,0-.2.3-.4.6-.6.9v.2c-.3.3-.4.6-.6.9-.2.4,0,.8.4,1.1h.2c.5.4.8,1,.8,1.6s-.3,1.2-.8,1.5h-.2c-.4.3-.6.8-.4,1.2.1.3.3.6.4.9v.2c.3.3.5.6.7.8.3.3.7.4,1.1.2h.2c.5-.4,1.2-.3,1.7,0s.9.8.9,1.5v.2c0,.4.3.8.7.9.4,0,.8,0,1.2,0s.8,0,1.2,0c.4,0,.7-.4.7-.9v-.2c0-.6.4-1.2.9-1.5s1.2-.4,1.7,0h.2c.4.3.8.3,1.1,0,.2-.3.4-.6.6-.8v-.2c.3-.3.5-.6.6-.9.2-.4,0-.8-.4-1.1h-.2c-.5-.4-.8-1-.8-1.6s.3-1.2.8-1.5h.2c0,0,0,0,0,0ZM10.8,13.1c0-1.3,1-2.3,2.3-2.3s2.3,1,2.3,2.3-1,2.3-2.3,2.3-2.3-1-2.3-2.3Z"/>
</svg>